HIERARCHY
ROOT Hips
{
 OFFSET 0.000000 0.000000 0.000000
 CHANNELS 6 Xposition Yposition Zposition Yrotation Xrotation Zrotation
 JOINT Chest
 {
  OFFSET 0.000000 9.585900 0.002600
  CHANNELS 3 Yrotation Xrotation Zrotation
  JOINT Chest2
  {
   OFFSET 0.000000 9.601200 -0.005300
   CHANNELS 3 Yrotation Xrotation Zrotation
   JOINT Chest3
   {
    OFFSET 0.000000 9.561800 0.000000
    CHANNELS 3 Yrotation Xrotation Zrotation
    JOINT Chest4
    {
     OFFSET 0.000000 9.552100 0.000000
     CHANNELS 3 Yrotation Xrotation Zrotation
     JOINT Neck
     {
      OFFSET 0.000000 14.453000 0.000000
      CHANNELS 3 Yrotation Xrotation Zrotation
      JOINT Head
      {
       OFFSET 0.000000 8.936500 -0.011300
       CHANNELS 3 Yrotation Xrotation Zrotation
       End Site
       {
        OFFSET 0.000000 17.073600 -0.006000
       }
      }
     }
     JOINT RightCollar
     {
      OFFSET -2.921100 9.558500 0.000000
      CHANNELS 3 Yrotation Xrotation Zrotation
      JOINT RightShoulder
      {
       OFFSET -13.519700 0.000000 0.000000
       CHANNELS 3 Yrotation Xrotation Zrotation
       JOINT RightElbow
       {
        OFFSET 0.000000 -29.696600 0.000000
        CHANNELS 3 Yrotation Xrotation Zrotation
        JOINT RightWrist
        {
         OFFSET 0.000000 -24.004700 0.000000
         CHANNELS 3 Yrotation Xrotation Zrotation
         End Site
         {
          OFFSET 0.000000 -17.728500 0.000000
         }
        }
       }
      }
     }
     JOINT LeftCollar
     {
      OFFSET 2.921100 9.558500 0.000000
      CHANNELS 3 Yrotation Xrotation Zrotation
      JOINT LeftShoulder
      {
       OFFSET 13.519700 0.000000 0.000000
       CHANNELS 3 Yrotation Xrotation Zrotation
       JOINT LeftElbow
       {
        OFFSET 0.000000 -29.696600 0.000000
        CHANNELS 3 Yrotation Xrotation Zrotation
        JOINT LeftWrist
        {
         OFFSET 0.000000 -24.004700 0.000000
         CHANNELS 3 Yrotation Xrotation Zrotation
         End Site
         {
          OFFSET 0.000000 -17.728500 0.000000
         }
        }
       }
      }
     }
    }
   }
  }
 }
 JOINT RightHip
 {
  OFFSET -7.771700 -0.012900 -0.001300
  CHANNELS 3 Yrotation Xrotation Zrotation
  JOINT RightKnee
  {
   OFFSET 0.000000 -40.869800 0.001200
   CHANNELS 3 Yrotation Xrotation Zrotation
   JOINT RightAnkle
   {
    OFFSET 0.000000 -39.717900 0.002100
    CHANNELS 3 Yrotation Xrotation Zrotation
    JOINT RightToe
    {
     OFFSET 0.000000 -4.965400 11.033500
     CHANNELS 3 Yrotation Xrotation Zrotation
     End Site
     {
      OFFSET 0.000000 -1.423100 5.872300
     }
    }
   }
  }
 }
 JOINT LeftHip
 {
  OFFSET 7.771700 -0.012900 -0.001300
  CHANNELS 3 Yrotation Xrotation Zrotation
  JOINT LeftKnee
  {
   OFFSET 0.000000 -40.869800 0.001200
   CHANNELS 3 Yrotation Xrotation Zrotation
   JOINT LeftAnkle
   {
    OFFSET 0.000000 -39.717900 0.002100
    CHANNELS 3 Yrotation Xrotation Zrotation
    JOINT LeftToe
    {
     OFFSET 0.000000 -4.965400 11.033500
     CHANNELS 3 Yrotation Xrotation Zrotation
     End Site
     {
      OFFSET 0.000000 -1.423100 5.872300
     }
    }
   }
  }
 }
}
MOTION
Frames: 6
Frame Time: 0.008333
-60.931570 46.623186 2.441903 171.300443 -33.638905 -3.102353 0.264548 18.869267 1.548406 -0.054662 2.214535 0.176848 -0.051028 3.643538 0.305277 -0.057700 16.376192 1.384287 -1.013587 21.465075 -2.411118 -1.174238 4.074950 -4.080354 0.311400 1.427967 -1.445717 5.127780 -6.925796 -15.190483 -52.167491 -67.714899 100.203344 0.777174 7.438408 -16.137610 -0.296367 0.352657 2.180743 -2.925305 -1.825519 11.983752 77.041539 -75.397256 -114.585266 -1.272069 9.716506 9.999667 -2.873244 -53.236296 -1.975336 -169.796648 80.719031 -160.020349 -7.278002 -12.872345 -6.484260 -0.020335 -0.230100 0.003015 -7.454018 -54.487051 16.995916 -141.571963 83.303938 -143.520442 8.383732 -8.120292 -0.622633 0.086422 0.217009 0.067201
-60.934182 46.623226 2.443087 171.323818 -33.645745 -3.103773 0.267733 18.867154 1.553842 -0.032348 2.204017 0.185473 -0.078951 3.651379 0.296595 -0.074092 16.383354 1.380063 -0.992582 21.466114 -2.406310 -1.160470 4.097025 -4.073358 0.313732 1.435097 -1.453647 5.118256 -6.935497 -15.177863 -52.131259 -67.711804 100.164461 0.727592 7.317672 -16.171176 -0.293991 0.369106 2.189045 -2.930581 -1.883719 12.014781 77.295560 -75.387376 -114.815563 -1.227298 9.601959 10.236827 -2.855337 -53.230611 -1.996537 -169.756577 80.718121 -159.986197 -7.276936 -12.872567 -6.479797 -0.024358 -0.226205 0.006200 -7.438406 -54.483127 16.970129 -141.519292 83.301840 -143.464595 8.378359 -8.118647 -0.620032 0.093058 0.215615 0.066741
-60.940789 46.623718 2.442154 171.372711 -33.658642 -3.096380 0.237420 18.873952 1.531254 -0.031759 2.203586 0.185658 -0.071784 3.646716 0.299766 -0.070462 16.379818 1.382029 -1.016927 21.480734 -2.405184 -1.134907 4.120603 -4.073270 0.293482 1.448682 -1.462287 5.094053 -6.967308 -15.151759 -52.037687 -67.677650 100.082887 0.679060 7.164262 -16.261511 -0.324468 0.391325 2.193363 -2.940980 -1.956750 12.061972 77.611920 -75.360247 -115.079655 -1.170970 9.465877 10.540126 -2.815673 -53.219343 -2.063009 -169.690956 80.710477 -159.922003 -7.293456 -12.874719 -6.473043 -0.010730 -0.225838 0.015330 -7.421113 -54.472837 16.910860 -141.514915 83.310751 -143.471471 8.365237 -8.108173 -0.613129 0.088952 0.209473 0.069653
-60.947316 46.623444 2.441682 171.416495 -33.665585 -3.088977 0.226602 18.872667 1.521732 -0.031040 2.203937 0.186076 -0.077202 3.644071 0.296842 -0.015293 16.372697 1.400210 -1.064290 21.498127 -2.401874 -1.136237 4.147421 -4.069123 0.216153 1.463987 -1.467407 5.065619 -6.995653 -15.136271 -51.955740 -67.654540 100.024046 0.601299 6.966106 -16.414486 -0.407188 0.413429 2.198126 -2.958054 -2.024903 12.100099 78.116000 -75.345537 -115.490940 -1.111996 9.316080 10.894586 -2.785912 -53.213861 -2.125140 -169.638625 80.701613 -159.876878 -7.282132 -12.879209 -6.465239 -0.020404 -0.221719 0.022090 -7.378113 -54.472983 16.850138 -141.446565 83.317050 -143.411802 8.347869 -8.096981 -0.580815 0.076110 0.204881 0.061496
-60.953144 46.623768 2.439478 171.460710 -33.682575 -3.085243 0.220187 18.881963 1.518180 -0.019997 2.201742 0.191068 -0.088217 3.646855 0.293020 -0.007317 16.375577 1.405702 -1.024308 21.517721 -2.396017 -1.183824 4.165276 -4.051966 0.177590 1.466083 -1.475233 5.021570 -7.021088 -15.121774 -51.914875 -67.594811 100.022488 0.535124 6.759694 -16.636428 -0.425130 0.439526 2.225648 -3.006642 -2.121240 12.109697 78.832564 -75.344852 -116.073409 -1.055344 9.177263 11.280671 -2.754221 -53.198244 -2.184082 -169.549930 80.688632 -159.794153 -7.268762 -12.881372 -6.472719 -0.030925 -0.221633 0.046691 -7.340073 -54.463251 16.786320 -141.384642 83.313569 -143.340709 8.321633 -8.088736 -0.573498 0.080244 0.199249 0.061553
-60.956343 46.623113 2.438291 171.491098 -33.693575 -3.089778 0.201589 18.892023 1.512047 -0.009444 2.199118 0.195705 -0.068041 3.645307 0.299320 0.003697 16.376738 1.414240 -1.029414 21.532482 -2.394080 -1.193903 4.192494 -4.047023 0.150484 1.465580 -1.486460 4.957767 -7.036755 -15.102554 -51.896639 -67.557462 100.031918 0.428262 6.535698 -16.897243 -0.458778 0.448201 2.243477 -3.056329 -2.212662 12.117677 79.825744 -75.371300 -116.885370 -1.012921 9.071271 11.705536 -2.726567 -53.188244 -2.224995 -169.501246 80.681797 -159.737599 -7.267840 -12.879900 -6.469628 -0.027239 -0.222945 0.031170 -7.310115 -54.460924 16.746616 -141.347881 83.309725 -143.295601 8.334536 -8.080676 -0.574258 0.083613 0.193606 0.068411
